<?xml version="1.0" standalone="no"?>
<!DOCTYPE svg PUBLIC "-//W3C//DTD SVG 1.1//EN" "http://www.w3.org/Graphics/SVG/1.1/DTD/svg11.dtd" >
<!--
2013-9-30: Created.
-->
<svg>
<metadata>
Created by iconfont
</metadata>
<defs>

<font id="iconfont" horiz-adv-x="1024" >
  <font-face
    font-family="iconfont"
    font-weight="500"
    font-stretch="normal"
    units-per-em="1024"
    ascent="896"
    descent="-128"
  />
    <missing-glyph />
    
    <glyph glyph-name="x" unicode="x" horiz-adv-x="1001"
d="M281 543q-27 -1 -53 -1h-83q-18 0 -36.5 -6t-32.5 -18.5t-23 -32t-9 -45.5v-76h912v41q0 16 -0.5 30t-0.5 18q0 13 -5 29t-17 29.5t-31.5 22.5t-49.5 9h-133v-97h-438v97zM955 310v-52q0 -23 0.5 -52t0.5 -58t-10.5 -47.5t-26 -30t-33 -16t-31.5 -4.5q-14 -1 -29.5 -0.5
t-29.5 0.5h-32l-45 128h-439l-44 -128h-29h-34q-20 0 -45 1q-25 0 -41 9.5t-25.5 23t-13.5 29.5t-4 30v167h911zM163 247q-12 0 -21 -8.5t-9 -21.5t9 -21.5t21 -8.5q13 0 22 8.5t9 21.5t-9 21.5t-22 8.5zM316 123q-8 -26 -14 -48q-5 -19 -10.5 -37t-7.5 -25t-3 -15t1 -14.5
t9.5 -10.5t21.5 -4h37h67h81h80h64h36q23 0 34 12t2 38q-5 13 -9.5 30.5t-9.5 34.5q-5 19 -11 39h-368zM336 498v228q0 11 2.5 23t10 21.5t20.5 15.5t34 6h188q31 0 51.5 -14.5t20.5 -52.5v-227h-327z" />
    

    
    <glyph glyph-name="icon-test" unicode="&#58912;" d="M454.5 619.1c32.5 28.2 53.1 69.9 53.1 116.3 0 84.9-69.1 154-154 154s-154-69.1-154-154c0-46.1 20.4-87.5 52.6-115.8-74.7-13.1-130.8-66.9-130.8-131.2v-214.9c0-55.9 42.8-105.4 105.8-124.8v-229.8c0-22.5 17.7-40.2 40.2-40.2h173.8c22.5 0 40.2 17.7 40.2 40.2v231c60.3 20.3 101.1 69.3 101.1 123.6V488.4c0.2 63.5-54.6 116.9-128 130.7zM240.7 735.4c0 62.3 50.7 113 113 113s113-50.7 113-113c0-59.8-46.7-108.9-105.6-112.8h-14.8c-58.9 3.8-105.6 52.9-105.6 112.8z m301-461.9c0-39.9-35.1-76.2-85.4-88.3-9.2-2.2-15.7-10.4-15.7-19.9l0.8-245.7-173.1-0.7V164.5c0 9.6-6.7 18-16.2 20-52.8 11.4-89.7 47.9-89.7 89V488.4c0 51.4 56 93.3 124.9 93.3H345c5.7-0.3 11.6-0.3 17.3 0h54.5c67.7 0 124.9-42.7 124.9-93.3v-214.9zM882 801.6c11.3 0 20.5 9.2 20.5 20.5s-9.2 20.5-20.5 20.5H693.4c-5.4 0-10.6-2.2-14.5-6l-85.5-85.5c-8-8-8-21 0-28.9 4-4 9.2-6 14.5-6 5.2 0 10.5 2 14.5 6l79.5 79.5H882zM882 101.2H726.4l-68.2 68.2c-8 8-21 8-28.9 0-8-8-8-21 0-28.9l74.2-74.2c3.8-3.8 9-6 14.5-6h164c11.3 0 20.5 9.2 20.5 20.5s-9.2 20.4-20.5 20.4z"  horiz-adv-x="1024" />

    
    <glyph glyph-name="icon-test1" unicode="&#58913;" d="M364.3 415.5c0.3-1.1 0.7-2.2 1.2-3.2 5.8-12.7 35.8-77.1 55.9-96.1 3.4-3.2 5-6.9 4.9-11.3-0.1-5.4-2.9-11.3-7.1-15-9.1-7.9-46.6-21.9-60.8-27.2-5.8-2.2-10.3-3.9-12.5-4.8-27.8-12.1-78-53.3-85.6-62.5-0.1-0.2-14.6-17.6-21.2-35.5-5.5-15-4-28.5-3.6-31.1 1.4-10.1 10.1-17.6 20.3-17.6l512.7 1.1c5.7 0 11.1 2.4 15 6.6 3.9 4.2 5.8 9.8 5.4 15.5-0.1 1.1-0.1 2.4-0.1 3.7 0 5.7 0 14.2-3.5 23.4-8.9 23.5-31.1 45-48.1 59-34.6 28.2-99.8 56-133.7 67.2-1.6 0.9-7.5 5.8-8.5 11.7-0.7 4.4 1.6 9.6 6.9 15.5 31.8 35.2 53.1 85 61.6 116.9 7.4 27.8 14.3 86.9-7.1 132.3-17.6 37.4-38.6 60.2-70.4 76.2-19.4 9.8-52.5 16.4-82.2 16.4-30.2 0-63.8-12.3-91.7-33.4-85.8-61.1-49.3-201.9-47.8-207.8z m72.1 174.8c21.4 16.2 46 25.5 67.5 25.5 26.2 0 52-6 63.8-12 23.2-11.7 38.2-28.3 51.8-57.1 15.2-32.3 11.1-80.1 4.6-104.4-7.9-29.7-27.2-72.2-52.4-100-19.5-21.3-19.5-41.3-16-54.3 5.4-20.8 22.9-35.1 33.5-38.6 31.2-10.4 92-36.1 122.2-60.7 15-12.2 26.7-25 32.7-35.5l-463.6-1c3.7 7 8.8 14.1 11 16.8 6.1 6.6 50 42.4 70.8 51.4 1.8 0.8 5.5 2.2 10.4 4 29.6 11.1 59.7 22.8 73.3 34.6 12.9 11.2 20.9 28.1 21.3 45 0.3 15.9-5.9 30.8-17.7 41.9-10.4 9.8-32.8 53-46 81.6-3.5 14.1-26.7 120.4 32.8 162.8zM951.3 235.5c-11.3 0-20.5-9.2-20.5-20.5v-180.6c0-38.2-31.1-69.3-69.3-69.3H647.2c-11.3 0-20.5-9.2-20.5-20.5s9.2-20.5 20.5-20.5h214.4c60.8 0 110.2 49.4 110.2 110.2V215c0 11.3-9.1 20.5-20.5 20.5zM343-34.9H162.4c-38.2 0-69.3 31.1-69.3 69.3V215c0 11.3-9.2 20.5-20.5 20.5s-20.5-9.2-20.5-20.5v-180.6c0-60.8 49.4-110.2 110.2-110.2H343c11.3 0 20.5 9.2 20.5 20.5s-9.2 20.4-20.5 20.4zM72.7 532.5c11.3 0 20.5 9.2 20.5 20.5V733.6c0 38.2 31.1 69.3 69.3 69.3H343c11.3 0 20.5 9.2 20.5 20.5s-9.2 20.5-20.5 20.5H162.4c-60.8 0-110.2-49.4-110.2-110.2V553c0-11.3 9.1-20.5 20.5-20.5zM861.6 843.8H647.2c-11.3 0-20.5-9.2-20.5-20.5s9.2-20.5 20.5-20.5h214.4c38.2 0 69.3-31.1 69.3-69.3V553c0-11.3 9.2-20.5 20.5-20.5s20.5 9.2 20.5 20.5V733.6c-0.1 60.8-49.5 110.2-110.3 110.2z"  horiz-adv-x="1024" />

    
    <glyph glyph-name="icon-test2" unicode="&#58914;" d="M454.5 619.1c32.5 28.2 53.1 69.9 53.1 116.3 0 84.9-69.1 154-154 154s-154-69.1-154-154c0-46.1 20.4-87.5 52.6-115.8-74.7-13.1-130.8-66.9-130.8-131.2v-214.9c0-55.9 42.8-105.4 105.8-124.8v-229.8c0-22.5 17.7-40.2 40.2-40.2h173.8c22.5 0 40.2 17.7 40.2 40.2v231c60.3 20.3 101.1 69.3 101.1 123.6V488.4c0.2 63.5-54.6 116.9-128 130.7zM882 801.6c11.3 0 20.5 9.2 20.5 20.5s-9.2 20.5-20.5 20.5H693.4c-5.4 0-10.6-2.2-14.5-6l-85.5-85.5c-8-8-8-21 0-28.9 4-4 9.2-6 14.5-6 5.2 0 10.5 2 14.5 6l79.5 79.5H882zM882 101.2H726.4l-68.2 68.2c-8 8-21 8-28.9 0-8-8-8-21 0-28.9l74.2-74.2c3.8-3.8 9-6 14.5-6h164c11.3 0 20.5 9.2 20.5 20.5s-9.2 20.4-20.5 20.4z"  horiz-adv-x="1024" />

    
    <glyph glyph-name="icon-test3" unicode="&#58915;" d="M364.3 415.5c0.3-1.1 0.7-2.2 1.2-3.2 5.8-12.7 35.8-77.1 55.9-96.1 3.4-3.2 5-6.9 4.9-11.3-0.1-5.4-2.9-11.3-7.1-15-9.1-7.9-46.6-21.9-60.8-27.2-5.8-2.2-10.3-3.9-12.5-4.8-27.8-12.1-78-53.3-85.6-62.5-0.1-0.2-14.6-17.6-21.2-35.5-5.5-15-4-28.5-3.6-31.1 1.4-10.1 10.1-17.6 20.3-17.6l512.7 1.1c5.7 0 11.1 2.4 15 6.6 3.9 4.2 5.8 9.8 5.4 15.5-0.1 1.1-0.1 2.4-0.1 3.7 0 5.7 0 14.2-3.5 23.4-8.9 23.5-31.1 45-48.1 59-34.6 28.2-99.8 56-133.7 67.2-1.6 0.9-7.5 5.8-8.5 11.7-0.7 4.4 1.6 9.6 6.9 15.5 31.8 35.2 53.1 85 61.6 116.9 7.4 27.8 14.3 86.9-7.1 132.3-17.6 37.4-38.6 60.2-70.4 76.2-19.4 9.8-52.5 16.4-82.2 16.4-30.2 0-63.8-12.3-91.7-33.4-85.8-61.1-49.3-201.9-47.8-207.8zM951.3 235.5c-11.3 0-20.5-9.2-20.5-20.5v-180.6c0-38.2-31.1-69.3-69.3-69.3H647.2c-11.3 0-20.5-9.2-20.5-20.5s9.2-20.5 20.5-20.5h214.4c60.8 0 110.2 49.4 110.2 110.2V215c0 11.3-9.1 20.5-20.5 20.5zM343-34.9H162.4c-38.2 0-69.3 31.1-69.3 69.3V215c0 11.3-9.2 20.5-20.5 20.5s-20.5-9.2-20.5-20.5v-180.6c0-60.8 49.4-110.2 110.2-110.2H343c11.3 0 20.5 9.2 20.5 20.5s-9.2 20.4-20.5 20.4zM72.7 532.5c11.3 0 20.5 9.2 20.5 20.5V733.6c0 38.2 31.1 69.3 69.3 69.3H343c11.3 0 20.5 9.2 20.5 20.5s-9.2 20.5-20.5 20.5H162.4c-60.8 0-110.2-49.4-110.2-110.2V553c0-11.3 9.1-20.5 20.5-20.5zM861.6 843.8H647.2c-11.3 0-20.5-9.2-20.5-20.5s9.2-20.5 20.5-20.5h214.4c38.2 0 69.3-31.1 69.3-69.3V553c0-11.3 9.2-20.5 20.5-20.5s20.5 9.2 20.5 20.5V733.6c-0.1 60.8-49.5 110.2-110.3 110.2z"  horiz-adv-x="1024" />

    
    <glyph glyph-name="icon-test4" unicode="&#58916;" d="M984.65701 773.6c-36.5 8.4-74 2.2-105.8-17.6-31.8-19.8-53.9-50.8-62.4-87.2-11.8-51 6-102 42.1-135.1L729.95701 310.8c-9 4.3-18.6 7.8-28.7 10.1-27.8 6.4-56.1 4.3-82.1-5.8l-75.5 102.3c24.4 19 42.7 46.2 50.3 78.6 17.5 75.3-29.5 150.7-104.8 168.2-36.5 8.4-74 2.2-105.8-17.6s-53.9-50.8-62.4-87.2c-8.5-36.5-2.2-74 17.6-105.8 4.8-7.7 10.3-14.8 16.4-21.4L210.65701 251.9c-12 7-25 12.2-38.9 15.4C96.55701 284.9 21.05701 237.8 3.65701 162.5-13.84299 87.3 33.15701 11.8 108.45701-5.6c10.6-2.5 21.2-3.6 31.7-3.6 63.7 0 121.5 43.8 136.5 108.5 8.5 36.5 2.2 74-17.6 105.8-4.8 7.7-10.3 14.8-16.3 21.4l144.2 180.4c12-7 25-12.2 38.9-15.4 10.6-2.5 21.2-3.6 31.7-3.6 17.5 0 34.4 3.6 50.2 9.7l75.7-102.5c-25.2-19.7-42.9-47.1-50.2-78.7-17.5-75.3 29.5-150.7 104.8-168.2 10.6-2.5 21.2-3.6 31.7-3.6 63.7 0 121.5 43.8 136.5 108.5 11.8 51-6 102-42.1 135.1l128.7 222.9c9-4.3 18.6-7.8 28.7-10.1 10.6-2.5 21.2-3.6 31.7-3.6 63.7 0 121.5 43.8 136.5 108.5 17.2 74.8-29.8 150.2-105.1 167.7z"  horiz-adv-x="1093" />

    
    <glyph glyph-name="icon-test5" unicode="&#58917;" d="M984.65701 773.6c-36.5 8.4-74 2.2-105.8-17.6-31.8-19.8-53.9-50.8-62.4-87.2-11.8-51 6-102 42.1-135.1L729.95701 310.8c-9 4.3-18.6 7.8-28.7 10.1-27.8 6.4-56.1 4.3-82.1-5.8l-75.5 102.3c24.4 19 42.7 46.2 50.3 78.6 17.5 75.3-29.5 150.7-104.8 168.2-36.5 8.5-74 2.2-105.8-17.6s-53.9-50.8-62.4-87.2c-8.5-36.5-2.2-74 17.6-105.8 4.8-7.7 10.3-14.8 16.4-21.4L210.65701 251.9c-12 7-25 12.2-38.9 15.4C96.55701 284.8 21.05701 237.8 3.65701 162.5-13.84299 87.3 33.15701 11.8 108.45701-5.6c10.6-2.5 21.2-3.6 31.7-3.6 63.7 0 121.5 43.8 136.5 108.5 8.5 36.5 2.2 74-17.6 105.8-4.8 7.7-10.3 14.8-16.3 21.4l144.2 180.4c12-7 25-12.2 38.9-15.4 10.6-2.5 21.2-3.6 31.7-3.6 17.5 0 34.4 3.6 50.2 9.7l75.7-102.5c-25.2-19.7-42.9-47.1-50.2-78.7-17.5-75.3 29.5-150.7 104.8-168.2 10.6-2.5 21.2-3.6 31.7-3.6 63.7 0 121.5 43.8 136.5 108.5 11.8 51-6 102-42.1 135.1l128.7 222.9c9-4.3 18.6-7.8 28.7-10.1 10.6-2.5 21.2-3.6 31.7-3.6 63.7 0 121.5 43.8 136.5 108.5 17.2 74.8-29.8 150.2-105.1 167.7zM236.75701 108.4c-6-25.8-21.7-47.7-44.1-61.8-22.5-14-49.1-18.4-74.9-12.4-25.8 6-47.7 21.7-61.8 44.1C41.95701 100.8 37.55701 127.4 43.55701 153.2 54.15701 199 94.95701 230 140.05701 230c7.4 0 14.9-0.8 22.4-2.6 25.8-6 47.7-21.7 61.7-44.1 14.1-22.5 18.5-49.1 12.6-74.9z m198.3 322.8c-25.8 6-47.7 21.7-61.7 44.1-14 22.5-18.4 49.1-12.4 74.9 6 25.8 21.7 47.7 44.1 61.8 15.9 9.9 33.9 15 52.3 15 7.5 0 15.1-0.9 22.6-2.6 25.8-6 47.7-21.7 61.8-44.1 14-22.5 18.4-49.1 12.4-74.9-12.5-53.3-65.8-86.5-119.1-74.2zM766.25701 162c-6-25.8-21.7-47.7-44.1-61.8-22.5-14-49.1-18.4-74.9-12.4-53.3 12.4-86.5 65.8-74.2 119 6 25.8 21.7 47.7 44.1 61.8 15.9 9.9 33.9 15 52.3 15 7.5 0 15.1-0.9 22.6-2.6 12.8-3 24.7-8.4 35.1-15.8 0.1 0 0.1-0.1 0.1-0.1s0.1 0 0.1-0.1c10.4-7.5 19.4-17 26.4-28.2 14-22.4 18.5-49 12.5-74.8z m283.4 452.7c-12.4-53.3-65.8-86.5-119-74.2-53.3 12.4-86.5 65.8-74.2 119 6 25.8 21.7 47.7 44.1 61.8 15.9 9.9 33.9 15 52.3 15 7.5 0 15.1-0.9 22.6-2.6 25.8-6 47.7-21.7 61.8-44.1 13.9-22.5 18.4-49.1 12.4-74.9z"  horiz-adv-x="1093" />

    
    <glyph glyph-name="mima-" unicode="&#58918;" d="M895.6 20c-22.3 166.7-134.3 300.2-277.3 345.3 81.5 39.6 137.9 123 137.9 219.5C756.2 719.5 646.7 829 512 829S267.8 719.5 267.8 584.8c0-96.5 56.4-179.9 137.9-219.5-143-45.1-255-178.6-277.3-345.3-2.8-20.6 3.5-41.4 17.1-57 13.4-15.3 32.5-24 52.6-24h627.6c20.1 0 39.3 8.8 52.6 24 13.8 15.6 20 36.4 17.3 57zM309.1 584.8c0 111.9 91 202.9 202.9 202.9s202.9-91 202.9-202.9-91-202.9-202.9-202.9-202.9 91-202.9 202.9z m538.3-594.6c-5.6-6.4-13.3-9.9-21.6-9.9H198.2c-8.3 0-16 3.5-21.6 9.9-5.8 6.6-8.5 15.5-7.3 24.4 24.9 185.8 172.2 326 342.7 326s317.8-140.2 342.7-326c1.2-8.9-1.5-17.8-7.3-24.4z"  horiz-adv-x="1024" />

    
    <glyph glyph-name="icon-test6" unicode="&#58919;" d="M853.5 862h-683C126.1 862 90 825.9 90 781.5v-795c0-44.4 36.1-80.5 80.5-80.5h683c44.4 0 80.5 36.1 80.5 80.5v795c0 44.4-36.1 80.5-80.5 80.5z m-36.3-597.6H203c-11.3 0-20.5 9.2-20.5 20.5s9.2 20.5 20.5 20.5h614.2c11.3 0 20.5-9.2 20.5-20.5s-9.2-20.5-20.5-20.5z m20.4-143c0-11.3-9.2-20.5-20.5-20.5H203c-11.3 0-20.5 9.2-20.5 20.5s9.2 20.5 20.5 20.5h614.2c11.3 0 20.4-9.1 20.4-20.5zM223.5 513.3v81.5c0 33.9 27.5 61.4 61.4 61.4h81.5c33.9 0 61.4-27.5 61.4-61.4v-81.5c0-33.9-27.5-61.4-61.4-61.4h-81.5c-33.9 0-61.4 27.5-61.4 61.4z m593.7-50.7H537c-11.3 0-20.5 9.2-20.5 20.5s9.2 20.5 20.5 20.5h280.1c11.3 0 20.5-9.2 20.5-20.5s-9.1-20.5-20.4-20.5z m0 142H537c-11.3 0-20.5 9.2-20.5 20.5s9.2 20.5 20.5 20.5h280.1c11.3 0 20.5-9.2 20.5-20.5s-9.1-20.5-20.4-20.5z"  horiz-adv-x="1024" />

    
    <glyph glyph-name="zhanghao-" unicode="&#58920;" d="M804.7 526.1h-89.9V626.9c0 111.8-91 202.8-202.8 202.8s-202.8-91-202.8-202.8v-100.8h-89.9c-34.1 0-61.9-27.8-61.9-61.9v-464c0-34.1 27.8-61.9 61.9-61.9h585.5c34.1 0 61.9 27.8 61.9 61.9v464c-0.1 34.1-27.8 61.9-62 61.9zM350.4 626.9c0 89.1 72.5 161.6 161.6 161.6S673.6 716 673.6 626.9v-100.8H350.4V626.9z m475-626.7c0-11.4-9.3-20.6-20.6-20.6H219.3c-11.4 0-20.6 9.3-20.6 20.6v464c0 11.4 9.3 20.6 20.6 20.6h585.5c11.4 0 20.6-9.3 20.6-20.6v-464zM512 313.5c-28.1 0-51-22.9-51-51 0-20.8 12.5-38.6 30.4-46.5v-74.9h41.3V216c17.8 7.9 30.4 25.8 30.4 46.5-0.1 28.2-23 51-51.1 51z"  horiz-adv-x="1024" />

    
    <glyph glyph-name="icon-test7" unicode="&#58921;" d="M853.5 862h-683C126.1 862 90 825.9 90 781.5v-795c0-44.4 36.1-80.5 80.5-80.5h683c44.4 0 80.5 36.1 80.5 80.5v795c0 44.4-36.1 80.5-80.5 80.5z m39.6-875.5c0-21.8-17.8-39.6-39.6-39.6h-683c-21.8 0-39.6 17.8-39.6 39.6v795c0 21.8 17.8 39.6 39.6 39.6h683c21.8 0 39.6-17.8 39.6-39.6v-795zM284.9 410.9h81.5c56.4 0 102.4 45.9 102.4 102.4v81.5c0 56.4-45.9 102.4-102.4 102.4h-81.5c-56.4 0-102.4-45.9-102.4-102.4v-81.5c0-56.4 45.9-102.4 102.4-102.4z m-61.4 183.9c0 33.9 27.5 61.4 61.4 61.4h81.5c33.9 0 61.4-27.5 61.4-61.4v-81.5c0-33.9-27.5-61.4-61.4-61.4h-81.5c-33.9 0-61.4 27.5-61.4 61.4v81.5zM817.2 503.5H537c-11.3 0-20.5-9.2-20.5-20.5s9.2-20.5 20.5-20.5h280.1c11.3 0 20.5 9.2 20.5 20.5s-9.1 20.5-20.4 20.5zM817.2 645.5H537c-11.3 0-20.5-9.2-20.5-20.5s9.2-20.5 20.5-20.5h280.1c11.3 0 20.5 9.2 20.5 20.5s-9.1 20.5-20.4 20.5zM817.2 305.3H203c-11.3 0-20.5-9.2-20.5-20.5s9.2-20.5 20.5-20.5h614.2c11.3 0 20.5 9.2 20.5 20.5s-9.2 20.5-20.5 20.5zM817.2 141.9H203c-11.3 0-20.5-9.2-20.5-20.5S191.7 101 203 101h614.2c11.3 0 20.5 9.2 20.5 20.5s-9.2 20.4-20.5 20.4z"  horiz-adv-x="1024" />

    
    <glyph glyph-name="huanzu" unicode="&#58922;" d="M612.5 186l1.8-92.9s-0.2-5.8 11.3-8.2c9.7-2 18.8 4.7 18.8 4.7 4 3 191.7 123.8 191.7 123.8s18 9.6 17.7 27.9c-0.3 17.9-13.3 25-13.3 25L643.1 379.8s-12.4 4.3-22.9 1.9c-11.3-2.6-11.1-10.9-11.1-10.9l1.7-85.9-189.8-3.2s-150 17.6-150.9 73.1c0 0 5.4-174.4 157.4-171.9l185 3.1zM410.9 582.2l-1.8 93s-2.1 6.7-14.4 8.1c-8.2 0.9-13.2-3.3-14.9-4.6L187.9 554.8s-18-9.6-17.7-27.9c0.3-17.9 13.3-25 13.3-25L381 388.2s8.2-4.8 19.2-1.7c13.6 3.8 14.1 10.7 14.1 10.7l-1.7 86 190.8 3.2s150.1-17.6 151.1-73.1c0 0-5.4 174.6-157.6 172l-186-3.1z"  horiz-adv-x="1024" />

    
    <glyph glyph-name="jiebang" unicode="&#58923;" d="M487.6 235.4l-108.3-129c-51.2-61.1-133.6-76.7-183.7-34.7-50 42-48.9 126 2.5 187.2l108.1 128.8c8.9 10.6 7.6 26.5-3.1 35.4-10.6 8.9-26.4 7.5-35.4-3.1L159.6 291.2c-69.2-82.5-67.5-198.2 3.8-258 28.3-23.7 63.3-35.1 99.6-35.1 55.2 0 113.2 26.3 154.9 76l108.2 129c8.9 10.6 7.5 26.4-3.1 35.4-10.7 8.9-26.5 7.5-35.4-3.1zM901.1 678.5c-19.3 41.5-56.3 71.6-104.1 84.6-46.2 12.6-97.4 7.7-143.8-14l-153.6-71.6c-12.6-5.9-18-20.8-12.1-33.4 5.9-12.5 20.9-18 33.4-12.1l153.5 71.6c35.7 16.6 74.4 20.6 109.4 11.1 33.3-9.1 58.7-29.4 71.7-57.3 13.1-28 12.3-60.6-2-91.8-15.1-32.7-43.1-59.8-78.9-76.5l-154-71.7c-12.6-5.9-18.1-20.8-12.2-33.4 4.3-9.1 13.3-14.5 22.8-14.5 3.6 0 7.2 0.8 10.6 2.4l154 71.7c46.6 21.7 83.3 57.6 103.3 101.1 20.7 44.7 21.4 92.3 2 133.8zM407.2 577.8c4.4-12.8 9.4-12.4 11 1.3l16.1 140c1.6 13.5-8.2 23.5-21.9 21.9l-34.5-4.1c-13.8-1.6-21.1-13.4-16.6-26.4l45.9-132.7zM190.5 630.4l135.4-48.8c13-4.7 16.2-0.6 6.6 9.3l-94 97.1c-9.7 10-24.6 9.1-33.5-1.8l-22.5-27.5c-8.8-10.9-5.3-23.5 8-28.3zM191.5 462.8L328 496.3c13.2 3.2 13 7.8-0.9 10l-135.6 22.1c-14 2.3-24.9-7-24.8-20.7l0.3-26.1c0.2-13.6 11.2-22.1 24.5-18.8zM412.5 324.3c4.8-4.3 10.8-6.5 16.9-6.5 6.8 0 13.7 2.8 18.6 8.2l184 203.5c9.3 10.3 8.5 26.2-1.8 35.5-10.2 9.3-26.2 8.5-35.5-1.8l-184-203.4c-9.3-10.3-8.5-26.2 1.8-35.5z"  horiz-adv-x="1024" />

    
    <glyph glyph-name="shipin" unicode="&#58924;" d="M713.1 414L440.2 571.5c-23.1 13.3-52-3.3-52-30v-315.1c0-26.7 28.9-43.3 52-30L713.1 354c23.1 13.3 23.1 46.7 0 60zM512 832.1c-247.1 0-448.1-201-448.1-448.1s201-448.1 448.1-448.1 448.1 201 448.1 448.1S759.1 832.1 512 832.1z m0-868.5C280.2-36.4 91.6 152.2 91.6 384S280.2 804.4 512 804.4 932.4 615.8 932.4 384 743.8-36.4 512-36.4z"  horiz-adv-x="1024" />

    
    <glyph glyph-name="shang" unicode="&#58925;" d="M117.8 242.1l362.5 153.2c20.2 8.6 43.1 8.6 63.3 0l362.5-153.2c8.2-3.5 14.5 7.7 7.3 13l-353.7 256c-28.4 20.6-66.9 20.6-95.3 0L110.5 255c-7.2-5.2-0.9-16.4 7.3-12.9z"  horiz-adv-x="1024" />

    
    <glyph glyph-name="pinggu" unicode="&#58926;" d="M492.5 529.1H97.7c-18.1 0-32.8-14.7-32.8-32.8 0-18.1 14.7-32.8 32.8-32.8h394.8c18.1 0 32.8 14.7 32.8 32.8 0 18.1-14.7 32.8-32.8 32.8zM492.5 304.4H97.7c-18.1 0-32.8-14.7-32.8-32.8s14.7-32.8 32.8-32.8h394.8c18.1 0 32.8 14.7 32.8 32.8s-14.7 32.8-32.8 32.8zM491.9 79.6H98.2c-18.1 0-32.8-14.7-32.8-32.8S80.1 14 98.2 14h393.7c18.1 0 32.8 14.7 32.8 32.8s-14.6 32.8-32.8 32.8zM98.2 688.4h798.3c18.1 0 32.8 14.7 32.8 32.8S914.6 754 896.5 754H98.2c-18.1 0-32.8-14.7-32.8-32.8s14.7-32.8 32.8-32.8zM958.7 204.1c-1.3 2.9-9.4 7.3-25.8 7.3H828.3V565c0 17.8-54.3 17.8-54.3 0v-353.6H669.4c-16.4 0-24.4-4.4-26-7.4-1.3-2.5 0.1-10.5 9.1-21.6l114.4-143c9.4-11.8 21.5-18.2 34.1-18.2s24.7 6.5 34.1 18.2l114.6 143.2c8.9 10.9 10.3 18.9 9 21.5z"  horiz-adv-x="1024" />

    
    <glyph glyph-name="pingguxiangshang" unicode="&#58927;" d="M492.5 529.1H97.7c-18.1 0-32.8-14.7-32.8-32.8 0-18.1 14.7-32.8 32.8-32.8h394.8c18.1 0 32.8 14.7 32.8 32.8 0 18.1-14.7 32.8-32.8 32.8zM492.5 304.4H97.7c-18.1 0-32.8-14.7-32.8-32.8s14.7-32.8 32.8-32.8h394.8c18.1 0 32.8 14.7 32.8 32.8s-14.7 32.8-32.8 32.8zM491.9 79.6H98.2c-18.1 0-32.8-14.7-32.8-32.8S80.1 14 98.2 14h393.7c18.1 0 32.8 14.7 32.8 32.8s-14.6 32.8-32.8 32.8zM98.2 688.4h798.3c18.1 0 32.8 14.7 32.8 32.8S914.6 754 896.5 754H98.2c-18.1 0-32.8-14.7-32.8-32.8s14.7-32.8 32.8-32.8zM949.8 416.9L835.2 560.1c-9.4 11.8-21.5 18.2-34.1 18.2-12.6 0-24.7-6.5-34.1-18.2L652.6 417c-9-11.1-10.4-19.1-9.1-21.6 1.5-3.1 9.5-7.4 26-7.4H774v-353.6c0-17.8 54.3-17.8 54.3 0V388h104.6c16.4 0 24.6 4.4 25.8 7.3 1.3 2.5-0.1 10.5-8.9 21.6z"  horiz-adv-x="1024" />

    
    <glyph glyph-name="sousuo" unicode="&#58928;" d="M919.2 16.9L701.4 234.7c49.9 59 80.1 135.1 80.1 218.2 0 186.6-151.8 338.4-338.4 338.4S104.8 639.4 104.8 452.9c0-186.6 151.8-338.4 338.4-338.4 83.1 0 159.2 30.2 218.2 80.1l217.8-217.8 40 40.1zM443.1 171.2c-155.3 0-281.6 126.3-281.6 281.7 0 155.3 126.3 281.6 281.6 281.6s281.6-126.3 281.6-281.6c0.1-155.4-126.3-281.7-281.6-281.7z"  horiz-adv-x="1024" />

    
    <glyph glyph-name="you" unicode="&#58929;" d="M568.6 371.1c5.1 7.8 5.1 17.9 0 25.7L408 643.5c-2.7 4.1 3.2 8.4 6.3 4.5l197.3-249.4c6.8-8.6 6.8-20.7 0-29.3L414.3 119.9c-3.1-3.9-9 0.4-6.3 4.5l160.6 246.7z"  horiz-adv-x="1024" />

    
    <glyph glyph-name="xiangqing" unicode="&#58930;" d="M854.2 688.6L724.7 816.3c-5.6 5.6-13.2 8.6-21.1 8.6H190.8c-16.6 0-30-13.4-30-30V64c0-8.1 3.3-16 9.2-21.6l90.8-87.6c11.6-11.2 30.1-11.2 41.7 0l92.6 89.3 96.2-92.7c11.7-11.2 30-11.2 41.7 0l96.2 92.7 96.2-92.7c5.8-5.6 13.3-8.4 20.9-8.4 7.5 0 15.1 2.8 20.9 8.4l87 83.9c5.8 5.7 9.2 13.5 9.2 21.6V667.3c-0.2 8-3.4 15.7-9.2 21.3z m-514.7-52.7h150c18.9 0 34.2-15.3 34.2-34.2 0-18.9-15.3-34.2-34.2-34.2h-150c-18.9 0-34.2 15.3-34.2 34.2 0 18.9 15.3 34.2 34.2 34.2z m331.1-420H339.5c-18.9 0-34.2 15.3-34.2 34.2 0 18.9 15.3 34.2 34.2 34.2h331.2c18.9 0 34.2-15.3 34.2-34.2-0.1-18.8-15.4-34.2-34.3-34.2z m0 175.8H339.5c-18.9 0-34.2 15.3-34.2 34.2 0 18.9 15.3 34.2 34.2 34.2h331.2c18.9 0 34.2-15.3 34.2-34.2-0.1-18.9-15.4-34.2-34.3-34.2z"  horiz-adv-x="1024" />

    
    <glyph glyph-name="xiangqing1" unicode="&#58931;" d="M670.6 284.3H339.5c-18.9 0-34.2-15.3-34.2-34.2 0-18.9 15.3-34.2 34.2-34.2h331.2c18.9 0 34.2 15.3 34.2 34.2-0.1 18.9-15.4 34.2-34.3 34.2zM670.6 460.1H339.5c-18.9 0-34.2-15.3-34.2-34.2 0-18.9 15.3-34.2 34.2-34.2h331.2c18.9 0 34.2 15.3 34.2 34.2-0.1 18.9-15.4 34.2-34.3 34.2zM339.5 567.5h150c18.9 0 34.2 15.3 34.2 34.2 0 18.9-15.3 34.2-34.2 34.2h-150c-18.9 0-34.2-15.3-34.2-34.2 0-18.9 15.3-34.2 34.2-34.2zM854.2 688.6L724.7 816.3c-5.6 5.6-13.2 8.6-21.1 8.6H190.8c-16.6 0-30-13.4-30-30V64c0-8.1 3.3-16 9.2-21.6l90.8-87.6c11.6-11.2 30.1-11.2 41.7 0l92.6 89.3 96.2-92.7c11.7-11.2 30-11.2 41.7 0l96.2 92.7 96.2-92.7c5.8-5.6 13.3-8.4 20.9-8.4 7.5 0 15.1 2.8 20.9 8.4l87 83.9c5.8 5.7 9.2 13.5 9.2 21.6V667.3c-0.2 8-3.4 15.7-9.2 21.3z m-51.1-618.8l-57-55-96.1 92.7c-11.6 11.2-30 11.2-41.7 0l-96.1-92.7-96.2 92.7c-5.8 5.6-13.3 8.4-20.8 8.4s-15-2.8-20.9-8.4l-92.6-89.3-60.8 58.6V764.9h464.7V667c0-10 8.1-18 18-18h99.5v-579.2z"  horiz-adv-x="1024" />

    
    <glyph glyph-name="xia" unicode="&#58932;" d="M906.2 525.9L543.6 372.7c-20.2-8.6-43.1-8.6-63.3 0L117.8 525.9c-8.2 3.5-14.5-7.7-7.3-13l353.8-256.1c28.4-20.6 66.9-20.6 95.3 0L913.5 513c7.2 5.2 0.9 16.4-7.3 12.9z"  horiz-adv-x="1024" />

    
    <glyph glyph-name="zuo" unicode="&#58933;" d="M455.4 371.1c-5.1 7.8-5.1 17.9 0 25.7L616 643.5c2.7 4.1-3.2 8.4-6.3 4.5L412.4 398.6c-6.8-8.6-6.8-20.7 0-29.3l197.3-249.4c3.1-3.9 9 0.4 6.3 4.5L455.4 371.1z"  horiz-adv-x="1024" />

    
    <glyph glyph-name="cemiantuxiang" unicode="&#58934;" d="M726.9 168.8c-12.7 0-23-10.3-23-23v-51.5c0-44.1-35.9-80-80-80H222.3c-44.1 0-80 35.9-80 80V495.9c0 44.1 35.9 80 80 80h51.5c12.7 0 23 10.3 23 23s-10.3 23-23 23h-51.5c-69.5 0-126-56.5-126-126v-401.7c0-69.5 56.5-126 126-126H624c69.5 0 126 56.5 126 126v51.5c-0.1 12.8-10.4 23.1-23.1 23.1zM824.8 799.7H423.1c-56.6 0-103-46.3-103-103v-396.5c0-56.6 46.3-103 103-103h401.7c56.6 0 103 41.2 103 97.8V696.8c-0.1 56.6-46.4 102.9-103 102.9z"  horiz-adv-x="1024" />

    
    <glyph glyph-name="feiji" unicode="&#58935;" d="M879.9 713.2c-1.2 2.1-6.1 9.3-17.5 12.2-14.5 3.6-33.1-1.4-54.7-14.5l-642.5-340c-5.5-2.5-23.5-12.1-23.1-29 0.3-11.3 8.3-20.2 24.6-26.7L369.9 248l30.3-12.4L731.5 562 474.1 205.3l41.8-17.2 204-67.8c5.4-2.5 11.3-3.8 17.2-3.9 5.5 0 10.9 1.3 15.8 3.8 13.6 7.1 21.9 22.8 24.2 45.4l104.4 536.9c0.8 3.7 0.2 7.5-1.6 10.7zM574.5 142.9l-78.7 26c-3.9 1.3-8.1 0.7-11.5-1.6s-5.6-6-5.9-10l-7.8-101.6c-0.3-3.8 1.1-7.5 3.7-10.3 2.7-2.7 6.3-4.2 10.2-4 3 0.1 5.9 1.3 8.1 3.3l86.4 75.6c3.6 3.1 5.2 8 4.3 12.6-0.9 4.7-4.3 8.5-8.8 10z"  horiz-adv-x="1024" />

    
    <glyph glyph-name="zanwuxueyuan" unicode="&#58936;" d="M242.2 98.7H226c-0.4 0-0.8-0.1-1.2-0.2-4.5 0.2-8.5 1.5-11.4 3.8-1.8 1.4-4.3 1.1-5.7-0.7-1.4-1.8-1.1-4.3 0.7-5.7 4.7-3.7 10.8-5.6 17.6-5.6 0.4 0 0.9 0.1 1.3 0.2h14.9c2.2 0 4 1.8 4 4s-1.7 4.2-4 4.2zM338.6 230.6c-10.7-4.8-21-9.7-30.7-14.6-2-1-2.8-3.4-1.8-5.4 0.7-1.4 2.1-2.2 3.6-2.2 0.6 0 1.2 0.1 1.8 0.4 9.6 4.8 19.8 9.7 30.4 14.4 2 0.9 2.9 3.3 2 5.3-0.9 2.1-3.3 3-5.3 2.1zM207.2 114.2c-0.1 1.1-0.2 2.3-0.2 3.5 0 6.9 2.2 14.3 6.3 20.8 0.2 0.3 0.9 1.3 3.1 3.8 1.5 1.7 1.4 4.2-0.3 5.7s-4.2 1.4-5.7-0.3c-1.9-2.1-3.2-3.7-3.9-4.9-4.8-7.8-7.5-16.7-7.5-25.1 0-1.5 0.1-3 0.3-4.5 0.3-2 2-3.5 4-3.5h0.5c2.1 0.3 3.7 2.3 3.4 4.5zM254.8 180.7c-1.3 1.8-3.8 2.2-5.6 0.9-11.6-8.5-20.8-16.5-26.5-21.7-1.6-1.5-1.7-4.1-0.2-5.7 0.8-0.9 1.9-1.3 3-1.3 1 0 2 0.4 2.7 1.1 5.5 5.1 14.5 12.9 25.8 21.1 1.7 1.2 2.1 3.8 0.8 5.6zM292.8 208.2c-8.5-4.5-16.4-9-23.6-13.3-2-1.2-4-2.5-6-3.7-1.9-1.2-2.4-3.7-1.2-5.6 0.8-1.2 2.1-1.9 3.4-1.9 0.7 0 1.5 0.2 2.2 0.6 1.9 1.2 3.8 2.4 5.8 3.6 7.1 4.3 14.9 8.7 23.2 13.1 2 1 2.7 3.5 1.7 5.5-1.1 2-3.5 2.8-5.5 1.7zM370 262.5l-3.1-19.6c-2.5-1-7-2.9-12.9-5.4-2-0.9-3-3.3-2.1-5.3 0.7-1.5 2.1-2.4 3.7-2.4 0.5 0 1.1 0.1 1.6 0.3 9 3.9 14.7 6.2 14.8 6.2 1.3 0.5 2.3 1.7 2.5 3.1l3.8 24.3c0.2 1.5-0.4 3-1.6 3.9-4.1 3-8.1 6.4-11.9 10-1.6 1.6-4.2 1.5-5.7-0.1-1.6-1.6-1.5-4.2 0.1-5.7 3.5-3.3 7.1-6.5 10.8-9.3zM355.7 287.5c-5.6 6.7-10.6 14.3-15.1 22.4-1.1 2-3.5 2.7-5.5 1.6s-2.7-3.5-1.6-5.5c4.7-8.6 10-16.5 15.9-23.7 0.8-1 2-1.5 3.1-1.5 0.9 0 1.8 0.3 2.6 0.9 1.8 1.5 2.1 4.1 0.6 5.8zM323.4 339.5c-4 0-8.1 0.9-12 2.7-2 1-4.4 0.1-5.4-1.9-0.9-2-0.1-4.4 1.9-5.4 4.7-2.2 9.6-3.4 14.5-3.5 1.5-4.3 3.1-8.5 4.9-12.6 0.7-1.5 2.1-2.4 3.7-2.4 0.5 0 1.1 0.1 1.6 0.3 2 0.9 3 3.3 2.1 5.3-2.1 4.8-4 9.7-5.6 14.7-0.6 1.8-2.4 3-4.2 2.8h-1.5zM300.8 349.8c-5.9 5.9-10.5 13.9-13.3 22.9-0.7 2.1-2.9 3.3-5 2.7-2.1-0.7-3.3-2.9-2.7-5 3.2-10.3 8.4-19.4 15.3-26.3 0.8-0.8 1.8-1.2 2.9-1.2 1 0 2.1 0.4 2.8 1.2 1.6 1.5 1.6 4.1 0 5.7zM281 381.5h0.4c2.2 0.2 3.9 2.2 3.6 4.4-0.2 2-0.3 4-0.3 6 0 7.2 1.2 14.2 3.6 20.4 0.8 2.1-0.3 4.4-2.4 5.2-2.1 0.8-4.4-0.3-5.2-2.4-2.7-7.1-4.1-15.1-4.1-23.3 0-2.2 0.1-4.5 0.3-6.8 0.2-1.9 2-3.5 4.1-3.5zM289 423.2c0.7-0.6 1.6-0.9 2.5-0.9 1.2 0 2.4 0.5 3.2 1.5 3.1 4 6.8 7 11 8.9 1.7 0.8 2.6 2.6 2.3 4.4-0.9 5.1-1.6 10.3-2 15.6-0.2 2.2-2.1 3.8-4.4 3.7-2.2-0.2-3.9-2.1-3.7-4.4 0.4-4.5 0.9-9.1 1.6-13.4-4.2-2.4-7.9-5.7-11.1-9.8-1.5-1.7-1.2-4.2 0.6-5.6zM330.4 546c1.1 0 2.1 0.4 2.9 1.3 6.5 6.8 14.1 12.7 22.6 17.6 1.9 1.1 2.6 3.6 1.5 5.5s-3.6 2.6-5.5 1.5c-9.2-5.3-17.5-11.7-24.5-19-1.5-1.6-1.5-4.2 0.1-5.7 0.9-0.8 1.9-1.2 2.9-1.2zM445.2 582.3c0.2 2.2-1.5 4.2-3.7 4.3-8.9 0.7-16.9 1.2-25.6 1.2-1.6 0-3.2 0-4.7-0.1-2.2-0.1-4-1.9-3.9-4.1 0.1-2.2 1.9-4 4.1-3.9 1.5 0 3 0.1 4.5 0.1 8.4 0 16.3-0.5 25-1.2h0.3c2 0 3.8 1.6 4 3.7zM301.2 463.4c2.2 0 4 1.9 4 4.1 0 5.2 0.2 10.3 0.7 15.2 0.4 4.7 1.1 9.3 2 13.7 0.4 2.2-1 4.3-3.2 4.8-2.2 0.4-4.3-1-4.8-3.2-0.9-4.7-1.6-9.5-2.1-14.5-0.5-5.2-0.7-10.6-0.7-16v-0.1c0-2.2 1.8-4 4.1-4zM306.5 507.8c0.4-0.1 0.8-0.2 1.3-0.2 1.7 0 3.3 1.1 3.8 2.8 3.1 9.4 7.4 18.1 12.7 25.8 1.3 1.8 0.8 4.4-1 5.6-1.8 1.3-4.3 0.8-5.6-1-5.7-8.3-10.4-17.7-13.7-27.8-0.8-2.2 0.4-4.5 2.5-5.2zM455.9 577.6c2.1-0.1 4.1-0.1 6.1-0.1 8 0 17.2 0.6 25.3 5.2 1.9 1.1 2.6 3.6 1.5 5.5s-3.6 2.6-5.5 1.5c-5.2-2.9-11.4-4.1-21.3-4.1-1.8 0-3.7 0-5.8 0.1-2.2 0.1-4.1-1.7-4.2-3.9 0-2.2 1.7-4.1 3.9-4.2zM367.4 570.9c0.5 0 1 0.1 1.5 0.3l1.5 0.6c8.4 3.3 17 5.6 26.4 6.8 2.2 0.3 3.8 2.3 3.5 4.5-0.3 2.2-2.3 3.8-4.5 3.5-10.1-1.3-19.3-3.7-28.3-7.3l-1.5-0.6c-2.1-0.8-3-3.2-2.2-5.3 0.5-1.6 2-2.5 3.6-2.5zM493.8 593.3c0.7-0.6 1.6-0.9 2.5-0.9 1.2 0 2.4 0.5 3.2 1.5l7.1 9 7.8-8.4c1.5-1.6 4.1-1.7 5.7-0.2 1.6 1.5 1.7 4.1 0.2 5.7l-11 11.8c-0.8 0.9-1.9 1.3-3.1 1.3-1.2 0-2.3-0.6-3-1.5l-10-12.7c-1.5-1.7-1.2-4.2 0.6-5.6zM557 502.9c-2.2-0.2-3.8-2.2-3.6-4.4 0.7-6.7 1-13.6 1-20.5 0-3.2-0.1-6.5-0.2-9.7-0.1-2.2 1.6-4.1 3.9-4.2h0.2c2.1 0 3.9 1.7 4 3.9 0.1 3.4 0.2 6.8 0.2 10.1 0 7.2-0.3 14.3-1 21.3-0.3 2.1-2.3 3.7-4.5 3.5zM543.8 542.7c3.2-9.4 5.7-19.2 7.5-29.2 0.3-2 2-3.3 4-3.3 0.2 0 0.5 0 0.7 0.1 2.2 0.4 3.7 2.5 3.3 4.7-1.8 10.5-4.5 20.7-7.8 30.5-0.7 2.1-3 3.2-5.1 2.5-2.2-0.9-3.3-3.2-2.6-5.3zM538.3 556.7c0.7-1.5 2.1-2.4 3.7-2.4 0.5 0 1.1 0.1 1.6 0.4 2 0.9 3 3.3 2 5.3-4.4 9.9-9.6 19.2-15.4 27.6-1.3 1.8-3.8 2.3-5.6 1-1.8-1.3-2.3-3.8-1-5.6 5.5-7.9 10.5-16.8 14.7-26.3zM561 452.2c0.2 2.2-1.4 4.2-3.6 4.5-2.2 0.2-4.2-1.3-4.5-3.6-0.6-5.2-1.3-10.5-2.3-15.7-0.3-1.8 0.6-3.7 2.4-4.4 4.2-1.8 7.9-4.8 11.1-8.7 0.8-1 2-1.5 3.1-1.5 0.9 0 1.8 0.3 2.5 0.9 1.7 1.4 2 4 0.6 5.7-3.3 4-7.1 7.2-11.3 9.6 0.9 4.4 1.5 8.8 2 13.2zM576.6 375.4c-2.1 0.6-4.4-0.6-5-2.7-2.8-9.2-7.4-17.2-13.4-23.1-1.6-1.6-1.6-4.1 0-5.7 0.8-0.8 1.8-1.2 2.9-1.2 1 0 2.1 0.4 2.8 1.2 6.9 6.9 12.3 16.1 15.5 26.5 0.5 2.1-0.7 4.3-2.8 5zM570.7 412.8c2.5-6.3 3.7-13.5 3.7-20.9 0-1.9-0.1-3.9-0.3-5.8-0.2-2.2 1.4-4.2 3.7-4.4h0.4c2.1 0 3.8 1.6 4 3.7 0.2 2.2 0.3 4.4 0.3 6.5 0 8.4-1.5 16.6-4.3 23.8-0.8 2.1-3.2 3.1-5.2 2.3-2.1-0.8-3.1-3.1-2.3-5.2zM552.8 340c-0.9 2-3.3 2.9-5.3 2-4.4-2-9-2.8-13.5-2.4h-0.3c-1.9 0.1-3.6-1-4.2-2.8-1.7-5-3.5-10-5.6-14.7-0.9-2 0-4.4 2.1-5.3 0.5-0.2 1.1-0.3 1.6-0.3 1.6 0 3 0.9 3.7 2.4 1.8 4.1 3.4 8.3 4.9 12.5 4.9 0 9.8 1.1 14.6 3.3 2 0.9 2.9 3.3 2 5.3zM523.4 311.4c-2 1.1-4.4 0.4-5.5-1.6-4.5-8.2-9.6-15.8-15.3-22.6-1.4-1.7-1.2-4.3 0.5-5.7 0.8-0.6 1.7-0.9 2.6-0.9 1.2 0 2.3 0.5 3.1 1.5 6 7.2 11.4 15.3 16.2 23.9 1.1 1.9 0.3 4.4-1.6 5.4zM501.5 229c1.5 0 3 0.9 3.7 2.3 0.9 2 0.1 4.4-2 5.4-5.8 2.7-10.2 4.7-12.7 5.8l-2.5 19.6c3.7 2.8 7.4 5.9 10.9 9.3 1.6 1.5 1.7 4.1 0.1 5.7-1.5 1.6-4.1 1.7-5.7 0.1-3.8-3.7-7.8-7-12-10-1.2-0.9-1.8-2.3-1.7-3.8l3.1-24.2c0.2-1.4 1.1-2.6 2.4-3.2 0 0 5.7-2.6 14.6-6.7 0.7-0.2 1.3-0.3 1.8-0.3zM289.6 98.7H258c-2.2 0-4-1.8-4-4s1.8-4 4-4h31.6c2.2 0 4 1.8 4 4s-1.8 4-4 4zM514.1 222.7c10.1-4.8 19.6-9.5 28.3-13.9 0.6-0.3 1.2-0.4 1.8-0.4 1.5 0 2.9 0.8 3.6 2.2 1 2 0.2 4.4-1.8 5.4-8.8 4.4-18.3 9.1-28.5 14-2 1-4.4 0.1-5.4-1.9-0.9-2.1 0-4.5 2-5.4zM640.3 155.9c-1.5 1.7-4 1.8-5.7 0.3-1.7-1.5-1.8-4-0.3-5.7 3.5-4 12.3-14.4 17.3-25 0.7-1.5 2.1-2.3 3.7-2.3 0.6 0 1.2 0.1 1.7 0.4 2 0.9 2.9 3.4 1.9 5.4-5.3 11.1-13.9 21.6-18.6 26.9zM337 98.7h-31.6c-2.2 0-4-1.8-4-4s1.8-4 4-4H337c2.2 0 4 1.8 4 4s-1.8 4-4 4zM573.9 98.7h-31.6c-2.2 0-4-1.8-4-4s1.8-4 4-4h31.6c2.2 0 4 1.8 4 4s-1.7 4-4 4zM479.2 98.7h-31.6c-2.2 0-4-1.8-4-4s1.8-4 4-4h31.6c2.2 0 4 1.8 4 4s-1.8 4-4 4zM526.6 98.7H495c-2.2 0-4-1.8-4-4s1.8-4 4-4h31.6c2.2 0 4 1.8 4 4s-1.8 4-4 4zM589.2 187.5c1.2 1.9 0.6 4.4-1.3 5.5l-3.6 2.2c-6.7 4-14.8 8.6-24.2 13.5-2 1-4.4 0.3-5.5-1.7-1-2-0.3-4.4 1.7-5.5 9.2-4.9 17.2-9.3 23.8-13.3l3.5-2.1c0.7-0.4 1.4-0.6 2.1-0.6 1.4 0.1 2.7 0.7 3.5 2zM627.6 166.5c-7.9 5.8-16.7 11.9-26.2 18-1.9 1.2-4.4 0.7-5.6-1.2-1.2-1.9-0.7-4.4 1.2-5.6 9.4-6.1 18.1-12 25.8-17.8 0.7-0.5 1.6-0.8 2.4-0.8 1.2 0 2.5 0.6 3.2 1.6 1.3 2 1 4.5-0.8 5.8zM621.3 98.7h-31.6c-2.2 0-4-1.8-4-4s1.8-4 4-4h31.6c2.2 0 4 1.8 4 4s-1.7 4-4 4zM659.3 116.1c-2.2 0-4.1-1.8-4.1-4 0-2.6-0.6-4.7-1.8-6.5-3.1-4.7-8.4-6.9-16.3-6.9-2.2 0-4-1.8-4-4s1.9-4 4.1-4c10.5 0 18.2 3.5 22.9 10.5 2.1 3.1 3.2 6.8 3.2 10.9 0 2.2-1.8 4-4 4zM384.4 98.7h-31.6c-2.2 0-4-1.8-4-4s1.8-4 4-4h31.6c2.2 0 4 1.8 4 4s-1.8 4-4 4zM431.8 98.7h-31.6c-2.2 0-4-1.8-4-4s1.8-4 4-4h31.6c2.2 0 4 1.8 4 4s-1.8 4-4 4zM177 157.1h-16.2c-1.9 0-3.4-1.3-3.9-3-0.5 1.7-2 3-3.9 3h-15.4c-0.3 0-0.5 0.1-0.8 0.1-5 0-9.9 0.9-14.3 2.7-2.1 0.8-4.4-0.2-5.3-2.2-0.8-2.1 0.2-4.4 2.2-5.2 5.1-2.1 10.7-3.2 16.5-3.3 0.3-0.1 0.5-0.1 0.8-0.1h16.2c1.9 0 3.4 1.3 3.9 3 0.5-1.7 2-3 3.9-3H177c2.2 0 4 1.8 4 4s-1.8 4-4 4zM122.2 207.1c0.7 0 1.4 0.2 2.1 0.6l30.9 18.9c1.9 1.2 2.5 3.7 1.3 5.6-1.2 1.9-3.7 2.5-5.6 1.3L120 214.6c-1.9-1.2-2.5-3.7-1.3-5.6 0.8-1.2 2.1-1.9 3.5-1.9zM105.3 202.1c-5.7-6.7-8.6-13.5-8.6-20.3 0-2.9 0.5-5.8 1.6-8.5 1.2-3.2 3-6.3 5.2-9.1 0.8-1 2-1.5 3.2-1.5 0.9 0 1.8 0.3 2.5 0.9 1.7 1.4 2 3.9 0.6 5.7-1.7 2.1-3 4.4-3.9 6.9-0.7 1.9-1.1 3.8-1.1 5.7 0 4.8 2.2 9.9 6.6 15.1 1.4 1.7 1.2 4.2-0.5 5.7-1.6 1.3-4.1 1.1-5.6-0.6zM197.2 261.8l-30.9-18.9c-1.9-1.2-2.5-3.7-1.3-5.6 0.8-1.2 2.1-1.9 3.4-1.9 0.7 0 1.4 0.2 2.1 0.6l30.9 18.9c1.9 1.2 2.5 3.7 1.3 5.6-1.1 1.9-3.6 2.5-5.5 1.3zM212.7 271.3c-1.9-1.2-2.5-3.7-1.3-5.6 0.8-1.2 2.1-1.9 3.4-1.9 0.7 0 1.4 0.2 2.1 0.6l13.8 8.4c1 0.6 1.7 1.6 1.9 2.8l0.8 4.9c0.2 1.4-0.3 2.8-1.3 3.7-3.8 3.3-7.5 7-10.9 11-1.4 1.7-4 1.9-5.7 0.5-1.7-1.4-1.9-4-0.5-5.7 3.2-3.8 6.5-7.3 10.1-10.5l-0.1-0.8-12.3-7.4zM207.6 307.3c2 1.1 2.7 3.5 1.6 5.5-2.5 4.5-4.7 9.3-6.6 14.2-0.5 1.3-1.6 2.2-2.9 2.5-4.5 1-8.9 3-12.9 6.1-1.8 1.3-4.3 1-5.7-0.8-1.3-1.8-1-4.3 0.8-5.7 4.4-3.3 9-5.6 14-7 1.9-4.5 4-8.9 6.3-13.2 0.7-1.3 2.1-2.1 3.5-2.1 0.6 0 1.3 0.1 1.9 0.5zM168.2 344.6c0.8-1.3 2.1-2 3.5-2 0.7 0 1.4 0.2 2 0.6 1.9 1.1 2.6 3.6 1.5 5.5-3.5 5.9-5.9 12.8-6.9 19.9-0.4 2.8-0.6 5.6-0.6 8.3 0 2.1 0.1 4.2 0.3 6.2 0.2 2.2-1.3 4.2-3.6 4.5-2.2 0.2-4.2-1.3-4.5-3.6-0.3-2.3-0.4-4.7-0.4-7.1 0-3.2 0.2-6.4 0.7-9.5 1.3-8.1 4-16 8-22.8zM167.5 398.4c0.6-0.3 1.2-0.4 1.8-0.4 1.5 0 2.9 0.8 3.6 2.2 2.3 4.6 5.3 8.4 8.8 11.5 1 0.9 1.5 2.2 1.4 3.5-0.6 5.3-1 10.6-1 15.7 0 2.2-1.8 4-4 4s-4-1.8-4-4c0-4.7 0.3-9.6 0.8-14.5-3.6-3.5-6.7-7.6-9.2-12.5-1-2.1-0.2-4.5 1.8-5.5zM202.5 494.1c1.1 0 2.1 0.4 2.9 1.2 7.8 8.2 17.5 14.7 28.9 19.4 2.1 0.9 3 3.2 2.2 5.3-0.8 2.1-3.2 3-5.3 2.2-12.4-5.1-23-12.3-31.6-21.3-1.5-1.6-1.5-4.2 0.1-5.7 0.8-0.7 1.8-1.1 2.8-1.1zM178.9 445.1h0.6c2 0 3.7 1.4 4 3.4 1.8 12.3 5.7 23.4 11.4 33 1.1 1.9 0.5 4.4-1.4 5.5-1.9 1.1-4.4 0.5-5.5-1.4-6.3-10.5-10.5-22.6-12.5-36-0.3-2.1 1.2-4.2 3.4-4.5zM250.4 519.8c0.3 0 0.5 0 0.8 0.1 4 0.8 8.1 1.3 12.5 1.6l3.1 0.2c2.2 0.2 3.9 2.1 3.7 4.3-0.2 2.2-2.1 3.9-4.3 3.7l-3.1-0.2c-4.6-0.3-9.2-0.9-13.5-1.7-2.2-0.4-3.6-2.5-3.2-4.7 0.4-1.9 2.1-3.3 4-3.3zM590.1 516.9c5.4-0.4 9.9-0.6 13.7-0.6 1.1 0 2.1 0 3 0.1 2.2 0.1 4 2 3.8 4.2-0.1 2.2-2 3.9-4.2 3.8-3.8-0.2-9 0-15.6 0.6-2.3 0.2-4.2-1.5-4.3-3.7-0.3-2.2 1.4-4.2 3.6-4.4zM621.6 530.5c0.7-0.6 1.6-0.8 2.5-0.8 1.2 0 2.4 0.5 3.2 1.6l7 9 7.8-8.3c1.5-1.6 4.1-1.7 5.7-0.2 1.6 1.5 1.7 4.1 0.2 5.7l-11 11.8c-0.8 0.9-1.9 1.3-3.1 1.3-1.2-0.1-2.3-0.6-3-1.6l-9.9-12.8c-1.5-1.9-1.2-4.4 0.6-5.7zM668.8 491.9c0.6-1.6 2.1-2.5 3.7-2.5 0.5 0 1 0.1 1.5 0.3 2.1 0.8 3 3.2 2.2 5.3-5.8 14-12.4 23.9-17 29.8-1.4 1.8-3.9 2.1-5.7 0.7-1.8-1.4-2.1-3.9-0.7-5.7 3.6-4.4 10.3-14 16-27.9zM674.1 476.7c2.9-10.2 4.6-20.9 5.3-31.9 0.1-2.1 1.9-3.8 4-3.8h0.2c2.2 0.1 3.9 2 3.8 4.3-0.7 11.6-2.6 22.9-5.6 33.6-0.6 2.1-2.8 3.4-5 2.8-2.1-0.7-3.3-2.9-2.7-5zM683.7 432.3c-2.2 0.1-4.1-1.6-4.2-3.9-0.2-5.2-0.7-10.5-1.4-15.7-0.2-1.4 0.4-2.7 1.4-3.6 3.6-3 6.6-6.8 8.9-11.4 0.7-1.4 2.1-2.2 3.6-2.2 0.6 0 1.3 0.1 1.8 0.4 2 1 2.8 3.5 1.7 5.4-2.5 4.8-5.6 9-9.2 12.4 0.6 4.8 1 9.6 1.2 14.3 0.1 2.4-1.6 4.2-3.8 4.3zM701.4 381.8c-0.2 2.2-2.3 3.8-4.5 3.6-2.2-0.2-3.8-2.2-3.6-4.5 0.2-2 0.3-4.1 0.3-6.2 0-2.8-0.2-5.7-0.6-8.5-1.1-7-3.4-13.9-6.8-19.7-1.1-1.9-0.5-4.4 1.5-5.5 0.6-0.4 1.3-0.5 2-0.5 1.4 0 2.7 0.7 3.5 2 3.9 6.7 6.6 14.5 7.8 22.6 0.5 3.2 0.7 6.5 0.7 9.7 0.1 2.3 0 4.6-0.3 7zM653.8 305.3c0.6-0.3 1.3-0.5 2-0.5 1.4 0 2.8 0.7 3.5 2.1 2.3 4.2 4.5 8.6 6.4 13.1 4.9 1.3 9.6 3.6 14 6.9 1.8 1.3 2.1 3.9 0.8 5.7-1.3 1.8-3.9 2.1-5.7 0.8-4-3-8.4-5.1-12.9-6-1.3-0.3-2.4-1.2-2.9-2.5-2-4.9-4.2-9.6-6.7-14.1-1.2-2-0.5-4.4 1.5-5.5zM646.4 262.7c1.4 0 2.7 0.7 3.5 2 1.1 1.9 0.5 4.4-1.4 5.5l-12.2 7.3v0.2c3.6 3.2 7 6.7 10.2 10.5 1.4 1.7 1.2 4.3-0.5 5.7-1.7 1.4-4.3 1.2-5.7-0.5-3.4-4-7.1-7.7-10.9-11-1-0.9-1.5-2.2-1.4-3.6l0.5-4.3c0.2-1.2 0.9-2.3 1.9-3l13.8-8.3c0.8-0.3 1.5-0.5 2.2-0.5zM690.6 236.1c1.4 0 2.7 0.7 3.5 2 1.1 1.9 0.5 4.4-1.4 5.5l-29.5 17.7c-1.9 1.1-4.4 0.5-5.5-1.4-1.1-1.9-0.5-4.4 1.4-5.5l29.5-17.7c0.6-0.4 1.3-0.6 2-0.6zM745.4 205.8c-1.6-1.5-1.7-4.1-0.2-5.7 7.3-7.9 8.8-15.3 8.8-20.2 0-2.4-0.3-4.2-0.6-5.3-0.2-0.7-0.4-1.3-0.6-2-0.7-2.1 0.4-4.4 2.5-5.1 0.4-0.2 0.9-0.2 1.3-0.2 1.7 0 3.2 1 3.8 2.7 0.3 0.9 0.6 1.8 0.8 2.6 0.4 1.6 0.9 4.1 0.9 7.3 0 6.3-1.9 15.9-10.9 25.7-1.6 1.6-4.1 1.7-5.8 0.2zM732.7 210.2c0.7-0.4 1.4-0.6 2.1-0.6 1.3 0 2.7 0.7 3.4 1.9 1.2 1.9 0.6 4.4-1.3 5.6-1.3 0.8-2.7 1.6-4.1 2.4l-25.5 15.3c-1.9 1.1-4.4 0.5-5.5-1.4-1.1-1.9-0.5-4.4 1.4-5.5l25.6-15.4c1.4-0.8 2.7-1.6 3.9-2.3zM743.7 161.6c-4.7-2.9-10.5-4.5-16.9-4.5h-14.4c-2.2 0-4-1.8-4-4s1.8-4 4-4h14.4c7.9 0 15.3 2 21.2 5.8 1.9 1.2 2.4 3.7 1.2 5.6-1.1 1.7-3.6 2.3-5.5 1.1zM695.2 157.1H679c-2.2 0-4-1.8-4-4s1.8-4 4-4h16.2c2.2 0 4 1.8 4 4s-1.8 4-4 4zM717.8 565.6c0.7-0.4 1.4-0.6 2.2-0.6 1.3 0 2.6 0.7 3.4 1.9 0.1 0.1 7.4 11.5 19.3 25.3 1.5 1.7 1.3 4.2-0.4 5.7-1.7 1.5-4.2 1.3-5.7-0.4-12.2-14.2-19.7-25.7-20-26.2-1.2-2-0.6-4.5 1.2-5.7zM870.8 614.2c-2.1-0.6-3.4-2.8-2.8-5 0.6-2.2 0.9-4.4 0.9-6.6 0-6.5-2.5-13.4-7.4-20.3-1.3-1.8-0.9-4.3 1-5.6 0.7-0.5 1.5-0.7 2.3-0.7 1.3 0 2.5 0.6 3.3 1.7 5.9 8.4 8.9 16.8 8.9 25 0 3-0.4 5.9-1.2 8.8-0.6 2-2.8 3.3-5 2.7zM863.9 620.1c1 0 2 0.4 2.7 1.1 1.6 1.5 1.7 4.1 0.2 5.7-7.1 7.6-17.6 13.6-29.7 16.9-2.2 0.6-4.4-0.7-5-2.8-0.6-2.2 0.7-4.4 2.8-5 10.6-2.9 19.8-8 25.9-14.6 0.9-0.9 2-1.3 3.1-1.3zM878.7 676.5c-11.9-1.6-22.7-5-32-10.2-2-1.1-2.7-3.5-1.6-5.5 0.7-1.3 2.1-2.1 3.5-2.1 0.7 0 1.3 0.2 2 0.5 8.4 4.7 18.2 7.8 29.2 9.2 2.2 0.3 3.8 2.3 3.5 4.5-0.3 2.4-2.4 3.9-4.6 3.6zM923.9 674.9c-10 1.7-19.6 2.6-28.5 2.6-2.2 0-4-1.8-4-4s1.8-4 4-4c8.5 0 17.6-0.9 27.2-2.5 0.2 0 0.5-0.1 0.7-0.1 1.9 0 3.6 1.4 4 3.4 0.2 2.2-1.2 4.3-3.4 4.6zM851.4 571.1c-8.9-7.5-17.1-8.3-23.7-2.2-1.6 1.5-4.2 1.4-5.7-0.2-1.5-1.6-1.4-4.2 0.2-5.7 4.4-4.1 9.6-6.2 15.1-6.2 6.3 0 12.8 2.8 19.3 8.2 1.7 1.4 1.9 4 0.5 5.7-1.5 1.6-4 1.8-5.7 0.4zM813.9 628.3c-0.8-2.1 0.3-4.4 2.4-5.2 0.5-0.2 0.9-0.3 1.4-0.3 1.6 0 3.2 1 3.8 2.6 3.7 9.8 9.3 18.2 16.8 25 1.6 1.5 1.8 4.1 0.3 5.7-1.5 1.7-4.1 1.8-5.7 0.3-3.7-3.4-7-7.1-9.9-11.1-0.7 0.6-1.6 1-2.5 1.1-11.1 0.5-22-1.5-30.9-5.7l-2.4-1.2c-2-1-2.8-3.4-1.8-5.4 1-2 3.4-2.8 5.4-1.8 0.7 0.4 1.4 0.7 2.2 1.1 7.4 3.5 16.4 5.2 25.6 5-1.8-3.2-3.4-6.6-4.7-10.1zM772.8 630.9c-8.3-5.8-16.7-13-25.1-21.5-1.6-1.6-1.5-4.1 0-5.7 0.8-0.8 1.8-1.2 2.8-1.2 1 0 2.1 0.4 2.9 1.2 8 8.2 16.1 15.1 23.9 20.6 1.8 1.3 2.3 3.8 1 5.6-1.1 1.8-3.7 2.3-5.5 1zM817 600.7c0 3.3 0.2 6.7 0.7 10 0.3 2.2-1.2 4.3-3.4 4.6-2.2 0.3-4.3-1.2-4.6-3.4-0.5-3.7-0.8-7.5-0.8-11.1 0-8.1 1.3-16 3.8-22.7 0.6-1.6 2.1-2.7 3.8-2.7 0.5 0 0.9 0.1 1.4 0.2 2.1 0.8 3.2 3.1 2.4 5.2-2.2 5.9-3.3 12.8-3.3 19.9z"  horiz-adv-x="1024" />

    
    <glyph glyph-name="dagou-" unicode="&#58937;" d="M752.9 626.8c-173.3-88.7-283.2-354.7-283.2-354.7L402.1 403l-139.5-84.5c59.2-21.1 143.7-88.7 215.6-177.4C528.9 234 685.3 424 761.4 440.9c-29.6 67.7-12.7 122.6-8.5 185.9z"  horiz-adv-x="1024" />

    
    <glyph glyph-name="guanbi" unicode="&#58938;" d="M512 832.2C264.5 832.2 63.8 631.5 63.8 384S264.5-64.2 512-64.2 960.2 136.5 960.2 384 759.5 832.2 512 832.2z m175.2-656.7L512 350.6 336.8 175.5l-33.4 33.4L478.6 384 303.5 559.2l33.4 33.4L512 417.4l175.2 175.2 33.4-33.4L545.4 384l175.2-175.2-33.4-33.3z"  horiz-adv-x="1024" />

    


  </font>
</defs>
</svg>
